<svg xmlns="http://www.w3.org/2000/svg" xmlns:xlink="http://www.w3.org/1999/xlink" version="1.1" x="0px" y="0px" viewBox="0 0 512 640" style="enable-background:new 0 0 512 512;" xml:space="preserve">

<g>
   <path color="transparent" d="M160,181.3c41.2,0,74.7-33.5,74.7-74.7c0-41.2-33.5-74.7-74.7-74.7s-74.7,33.5-74.7,74.7C85.3,147.8,118.8,181.3,160,181.3   z"/>
   <path d="M294,217.4c-11.1-10-24.4-17.7-39.1-22.1l-17.2-5l-73.6,73.6l-73.7-73.6l-17.2,5C29.5,208.4,0,248,0,293.7V384h228.7   c-3-12-4.7-24.4-4.7-37.3C224,292.7,251.9,245.1,294,217.4z"/>
   <path d="M378.7,213.3c-73.5,0-133.3,59.7-133.3,133.3c0,73.5,59.8,133.3,133.3,133.3S512,420.1,512,346.7   C512,273.1,452.1,213.3,378.7,213.3z M343.9,366.2l-15.1,15.1l-39.9-39.9l39.9-39.9l15.1,15.1l-24.8,24.8L343.9,366.2z M370,401.7   l-20-7.3l37.4-103l20,7.3L370,401.7z M428.5,381.3l-15.1-15.1l24.8-24.8l-24.8-24.8l15.1-15.1l39.9,39.9L428.5,381.3z"/>

</g>

<!-- <text x="0" y="527" fill="#000000" font-size="5px" font-weight="bold" font-family="'Helvetica Neue', Helvetica, Arial-Unicode, Arial, Sans-serif">Created by Dinosoft Labs</text>

<text x="0" y="532" fill="#000000" font-size="5px" font-weight="bold" font-family="'Helvetica Neue', Helvetica, Arial-Unicode, Arial, Sans-serif">from the Noun Project</text> -->

</svg>